<svg width="185" height="60" viewBox="0 0 185 60" fill="none" xmlns="http://www.w3.org/2000/svg">
<path d="M21.12 24.8C20.6133 23.8667 19.88 23.16 18.92 22.68C17.9867 22.1733 16.88 21.92 15.6 21.92C13.3867 21.92 11.6133 22.6533 10.28 24.12C8.94667 25.56 8.28 27.4933 8.28 29.92C8.28 32.5067 8.97333 34.5333 10.36 36C11.7733 37.44 13.7067 38.16 16.16 38.16C17.84 38.16 19.2533 37.7333 20.4 36.88C21.5733 36.0267 22.4267 34.8 22.96 33.2H14.28V28.16H29.16V34.52C28.6533 36.2267 27.7867 37.8133 26.56 39.28C25.36 40.7467 23.8267 41.9333 21.96 42.84C20.0933 43.7467 17.9867 44.2 15.64 44.2C12.8667 44.2 10.3867 43.6 8.2 42.4C6.04 41.1733 4.34667 39.48 3.12 37.32C1.92 35.16 1.32 32.6933 1.32 29.92C1.32 27.1467 1.92 24.68 3.12 22.52C4.34667 20.3333 6.04 18.64 8.2 17.44C10.36 16.2133 12.8267 15.6 15.6 15.6C18.96 15.6 21.7867 16.4133 24.08 18.04C26.4 19.6667 27.9333 21.92 28.68 24.8H21.12ZM39.7888 25.4C40.5888 24.1733 41.5888 23.2133 42.7888 22.52C43.9888 21.8 45.3221 21.44 46.7888 21.44V28.68H44.9088C43.2021 28.68 41.9221 29.0533 41.0688 29.8C40.2154 30.52 39.7888 31.8 39.7888 33.64V44H32.9488V21.68H39.7888V25.4ZM71.0981 32.48C71.0981 33.12 71.0581 33.7867 70.9781 34.48H55.4981C55.6048 35.8667 56.0448 36.9333 56.8181 37.68C57.6181 38.4 58.5915 38.76 59.7381 38.76C61.4448 38.76 62.6315 38.04 63.2981 36.6H70.5781C70.2048 38.0667 69.5248 39.3867 68.5381 40.56C67.5781 41.7333 66.3648 42.6533 64.8981 43.32C63.4315 43.9867 61.7915 44.32 59.9781 44.32C57.7915 44.32 55.8448 43.8533 54.1381 42.92C52.4315 41.9867 51.0981 40.6533 50.1381 38.92C49.1781 37.1867 48.6981 35.16 48.6981 32.84C48.6981 30.52 49.1648 28.4933 50.0981 26.76C51.0581 25.0267 52.3915 23.6933 54.0981 22.76C55.8048 21.8267 57.7648 21.36 59.9781 21.36C62.1381 21.36 64.0581 21.8133 65.7381 22.72C67.4181 23.6267 68.7248 24.92 69.6581 26.6C70.6181 28.28 71.0981 30.24 71.0981 32.48ZM64.0981 30.68C64.0981 29.5067 63.6981 28.5733 62.8981 27.88C62.0981 27.1867 61.0981 26.84 59.8981 26.84C58.7515 26.84 57.7781 27.1733 56.9781 27.84C56.2048 28.5067 55.7248 29.4533 55.5381 30.68H64.0981ZM95.7466 32.48C95.7466 33.12 95.7066 33.7867 95.6266 34.48H80.1466C80.2532 35.8667 80.6932 36.9333 81.4666 37.68C82.2666 38.4 83.2399 38.76 84.3866 38.76C86.0932 38.76 87.2799 38.04 87.9466 36.6H95.2266C94.8532 38.0667 94.1732 39.3867 93.1866 40.56C92.2266 41.7333 91.0132 42.6533 89.5466 43.32C88.0799 43.9867 86.4399 44.32 84.6266 44.32C82.4399 44.32 80.4932 43.8533 78.7866 42.92C77.0799 41.9867 75.7466 40.6533 74.7866 38.92C73.8266 37.1867 73.3466 35.16 73.3466 32.84C73.3466 30.52 73.8132 28.4933 74.7466 26.76C75.7066 25.0267 77.0399 23.6933 78.7466 22.76C80.4532 21.8267 82.4132 21.36 84.6266 21.36C86.7866 21.36 88.7066 21.8133 90.3866 22.72C92.0666 23.6267 93.3732 24.92 94.3066 26.6C95.2666 28.28 95.7466 30.24 95.7466 32.48ZM88.7466 30.68C88.7466 29.5067 88.3466 28.5733 87.5466 27.88C86.7466 27.1867 85.7466 26.84 84.5466 26.84C83.3999 26.84 82.4266 27.1733 81.6266 27.84C80.8532 28.5067 80.3732 29.4533 80.1866 30.68H88.7466ZM112.955 21.44C115.568 21.44 117.648 22.2933 119.195 24C120.768 25.68 121.555 28 121.555 30.96V44H114.755V31.88C114.755 30.3867 114.368 29.2267 113.595 28.4C112.822 27.5733 111.782 27.16 110.475 27.16C109.168 27.16 108.128 27.5733 107.355 28.4C106.582 29.2267 106.195 30.3867 106.195 31.88V44H99.355V21.68H106.195V24.64C106.888 23.6533 107.822 22.88 108.995 22.32C110.168 21.7333 111.488 21.44 112.955 21.44ZM129.748 19.36C128.548 19.36 127.561 19.0133 126.788 18.32C126.041 17.6 125.668 16.72 125.668 15.68C125.668 14.6133 126.041 13.7333 126.788 13.04C127.561 12.32 128.548 11.96 129.748 11.96C130.921 11.96 131.881 12.32 132.628 13.04C133.401 13.7333 133.788 14.6133 133.788 15.68C133.788 16.72 133.401 17.6 132.628 18.32C131.881 19.0133 130.921 19.36 129.748 19.36ZM133.148 21.68V44H126.308V21.68H133.148ZM147.185 44.32C145.238 44.32 143.505 43.9867 141.985 43.32C140.465 42.6533 139.265 41.7467 138.385 40.6C137.505 39.4267 137.012 38.12 136.905 36.68H143.665C143.745 37.4533 144.105 38.08 144.745 38.56C145.385 39.04 146.172 39.28 147.105 39.28C147.958 39.28 148.612 39.12 149.065 38.8C149.545 38.4533 149.785 38.0133 149.785 37.48C149.785 36.84 149.452 36.3733 148.785 36.08C148.118 35.76 147.038 35.4133 145.545 35.04C143.945 34.6667 142.612 34.28 141.545 33.88C140.478 33.4533 139.558 32.8 138.785 31.92C138.012 31.0133 137.625 29.8 137.625 28.28C137.625 27 137.972 25.84 138.665 24.8C139.385 23.7333 140.425 22.8933 141.785 22.28C143.172 21.6667 144.812 21.36 146.705 21.36C149.505 21.36 151.705 22.0533 153.305 23.44C154.932 24.8267 155.865 26.6667 156.105 28.96H149.785C149.678 28.1867 149.332 27.5733 148.745 27.12C148.185 26.6667 147.438 26.44 146.505 26.44C145.705 26.44 145.092 26.6 144.665 26.92C144.238 27.2133 144.025 27.6267 144.025 28.16C144.025 28.8 144.358 29.28 145.025 29.6C145.718 29.92 146.785 30.24 148.225 30.56C149.878 30.9867 151.225 31.4133 152.265 31.84C153.305 32.24 154.212 32.9067 154.985 33.84C155.785 34.7467 156.198 35.9733 156.225 37.52C156.225 38.8267 155.852 40 155.105 41.04C154.385 42.0533 153.332 42.8533 151.945 43.44C150.585 44.0267 148.998 44.32 147.185 44.32ZM174.13 21.44C176.69 21.44 178.743 22.2933 180.29 24C181.836 25.68 182.61 28 182.61 30.96V44H175.81V31.88C175.81 30.3867 175.423 29.2267 174.65 28.4C173.876 27.5733 172.836 27.16 171.53 27.16C170.223 27.16 169.183 27.5733 168.41 28.4C167.636 29.2267 167.25 30.3867 167.25 31.88V44H160.41V14.4H167.25V24.68C167.943 23.6933 168.89 22.9067 170.09 22.32C171.29 21.7333 172.636 21.44 174.13 21.44Z" fill="#007549"/>
</svg>
